<?xml version="1.0" encoding="UTF-8" standalone="no"?>
<svg
   xmlns:svg="http://www.w3.org/2000/svg"
   xmlns="http://www.w3.org/2000/svg"
   width="2000"
   height="2475"
   viewBox="0 0 2000 2475"
   version="1.1"
   id="idx_inch_calculator_logo">
  <path
     d="M 104.64266,0 C 46.85584,0 0,46.831038 0,104.60255 V 2370.5894 c 0,57.7715 46.85584,104.6027 104.64266,104.6027 H 1899.7097 c 57.7026,0 104.4943,-46.7684 104.4943,-104.4667 V 104.60255 C 2004.204,46.831038 1957.3482,0 1899.5614,0 Z M 288.74541,194.97167 H 1715.4586 c 55.9017,0 101.2312,45.3052 101.2312,101.19205 V 568.5013 c 0,57.12925 -46.3398,103.45679 -103.4842,103.45679 H 290.99838 c -57.14445,0 -103.48217,-46.32754 -103.48217,-103.45679 V 296.16372 c 0,-55.88685 45.32752,-101.19205 101.2292,-101.19205 z m 69.44433,696.78573 h 496.629 c 21.0421,0 38.113,17.05581 38.113,38.10287 v 492.89513 c 0,23.0372 -18.6833,41.7051 -41.7264,41.7051 H 356.57988 c -20.15745,0 -36.5031,-16.341 -36.5031,-36.5038 V 929.86027 c 0,-21.04706 17.06032,-38.10287 38.11296,-38.10287 z m 789.09086,0 h 496.627 c 21.0527,0 38.1151,17.05581 38.1151,38.10287 v 492.89513 c 0,23.0372 -18.6731,41.7051 -41.7162,41.7051 h -494.6276 c -20.1574,0 -36.5133,-16.341 -36.5133,-36.5038 V 929.86027 c 0,-21.04706 17.0728,-38.10287 38.115,-38.10287 z M 355.642,1683.0893 h 496.62694 c 21.0527,0 38.115,17.0684 38.115,38.1049 v 492.8953 c 0,23.037 -18.6832,41.7051 -41.7263,41.7051 H 354.04039 c -20.16798,0 -36.51134,-16.3414 -36.51134,-36.4935 v -498.1069 c 0,-21.0365 17.06032,-38.1049 38.11295,-38.1049 z m 791.6386,0 h 496.627 c 21.0527,0 38.1151,17.0684 38.1151,38.1049 v 492.8953 c 0,23.037 -18.6731,41.7051 -41.7162,41.7051 h -494.6276 c -20.1574,0 -36.5133,-16.3414 -36.5133,-36.4935 v -498.1069 c 0,-21.0365 17.0728,-38.1049 38.115,-38.1049 z"
     style="fill:#f5533c;stroke:none;"
     id="idx_inch_calculator_logo_path" />
</svg>
